# xmcd
#
# Track frame offsets:
#	150
#	14309
#	46631
#	77687
#	125073
#	217499
#
# Disc length: 3511 seconds
#
# Revision: 1
# Processed by: cddbd v1.5.2PL0 Copyright (c) Steve Scherf et al.
# Submitted via: audiograbber 1.83.01
#
DISCID=4e0db506
DTITLE=Grateful Dead - 79-09-01 Holleder Memorial Stadium, Rochester NY
DYEAR=1900
DGENRE=
TTITLE0=Tuning
TTITLE1=Lost Sailor
TTITLE2=Saint Of Circumstance
TTITLE3=Scarlet Begonias
TTITLE4=Fire On The Mountain
TTITLE5=Drums
EXTD=
EXTT0=
EXTT1=
EXTT2=
EXTT3=
EXTT4=
EXTT5=
PLAYORDER=
